<?xml version="1.0" standalone="no"?><svg xmlns="http://www.w3.org/2000/svg" viewBox="0 0 1440 320"><path fill="#ffffff" fill-opacity="1" d="M0,128L16,154.7C32,181,64,235,96,261.3C128,288,160,288,192,245.3C224,203,256,117,288,80C320,43,352,53,384,96C416,139,448,213,480,245.3C512,277,544,267,576,224C608,181,640,107,672,101.3C704,96,736,160,768,186.7C800,213,832,203,864,208C896,213,928,235,960,202.7C992,171,1024,85,1056,48C1088,11,1120,21,1152,74.7C1184,128,1216,224,1248,250.7C1280,277,1312,235,1344,213.3C1376,192,1408,192,1424,192L1440,192L1440,320L1424,320C1408,320,1376,320,1344,320C1312,320,1280,320,1248,320C1216,320,1184,320,1152,320C1120,320,1088,320,1056,320C1024,320,992,320,960,320C928,320,896,320,864,320C832,320,800,320,768,320C736,320,704,320,672,320C640,320,608,320,576,320C544,320,512,320,480,320C448,320,416,320,384,320C352,320,320,320,288,320C256,320,224,320,192,320C160,320,128,320,96,320C64,320,32,320,16,320L0,320Z"></path></svg>