<?xml version="1.0" standalone="no"?><svg xmlns="http://www.w3.org/2000/svg" viewBox="0 0 1440 320"><path fill="#FFA500" fill-opacity="1" d="M0,128L18.5,122.7C36.9,117,74,107,111,101.3C147.7,96,185,96,222,128C258.5,160,295,224,332,256C369.2,288,406,288,443,250.7C480,213,517,139,554,138.7C590.8,139,628,213,665,213.3C701.5,213,738,139,775,106.7C812.3,75,849,85,886,101.3C923.1,117,960,139,997,165.3C1033.8,192,1071,224,1108,202.7C1144.6,181,1182,107,1218,69.3C1255.4,32,1292,32,1329,53.3C1366.2,75,1403,117,1422,138.7L1440,160L1440,0L1421.5,0C1403.1,0,1366,0,1329,0C1292.3,0,1255,0,1218,0C1181.5,0,1145,0,1108,0C1070.8,0,1034,0,997,0C960,0,923,0,886,0C849.2,0,812,0,775,0C738.5,0,702,0,665,0C627.7,0,591,0,554,0C516.9,0,480,0,443,0C406.2,0,369,0,332,0C295.4,0,258,0,222,0C184.6,0,148,0,111,0C73.8,0,37,0,18,0L0,0Z"></path></svg>