<?xml version="1.0" standalone="no"?><svg xmlns="http://www.w3.org/2000/svg" viewBox="0 0 1440 320"><path fill="#8155BA" fill-opacity="1" d="M0,64L10.9,80C21.8,96,44,128,65,133.3C87.3,139,109,117,131,122.7C152.7,128,175,160,196,176C218.2,192,240,192,262,197.3C283.6,203,305,213,327,192C349.1,171,371,117,393,85.3C414.5,53,436,43,458,58.7C480,75,502,117,524,138.7C545.5,160,567,160,589,149.3C610.9,139,633,117,655,106.7C676.4,96,698,96,720,112C741.8,128,764,160,785,154.7C807.3,149,829,107,851,80C872.7,53,895,43,916,69.3C938.2,96,960,160,982,197.3C1003.6,235,1025,245,1047,224C1069.1,203,1091,149,1113,144C1134.5,139,1156,181,1178,192C1200,203,1222,181,1244,186.7C1265.5,192,1287,224,1309,202.7C1330.9,181,1353,107,1375,112C1396.4,117,1418,203,1429,245.3L1440,288L1440,0L1429.1,0C1418.2,0,1396,0,1375,0C1352.7,0,1331,0,1309,0C1287.3,0,1265,0,1244,0C1221.8,0,1200,0,1178,0C1156.4,0,1135,0,1113,0C1090.9,0,1069,0,1047,0C1025.5,0,1004,0,982,0C960,0,938,0,916,0C894.5,0,873,0,851,0C829.1,0,807,0,785,0C763.6,0,742,0,720,0C698.2,0,676,0,655,0C632.7,0,611,0,589,0C567.3,0,545,0,524,0C501.8,0,480,0,458,0C436.4,0,415,0,393,0C370.9,0,349,0,327,0C305.5,0,284,0,262,0C240,0,218,0,196,0C174.5,0,153,0,131,0C109.1,0,87,0,65,0C43.6,0,22,0,11,0L0,0Z"></path></svg>