<?xml version="1.0" standalone="no"?><svg xmlns="http://www.w3.org/2000/svg" viewBox="0 0 1440 320"><path fill="#FFA500" fill-opacity="1" d="M0,32L6.3,42.7C12.6,53,25,75,38,85.3C50.5,96,63,96,76,96C88.4,96,101,96,114,117.3C126.3,139,139,181,152,192C164.2,203,177,181,189,165.3C202.1,149,215,139,227,160C240,181,253,235,265,245.3C277.9,256,291,224,303,181.3C315.8,139,328,85,341,80C353.7,75,366,117,379,112C391.6,107,404,53,417,74.7C429.5,96,442,192,455,224C467.4,256,480,224,493,218.7C505.3,213,518,235,531,234.7C543.2,235,556,213,568,181.3C581.1,149,594,107,606,106.7C618.9,107,632,149,644,154.7C656.8,160,669,128,682,106.7C694.7,85,707,75,720,85.3C732.6,96,745,128,758,154.7C770.5,181,783,203,796,176C808.4,149,821,75,834,74.7C846.3,75,859,149,872,170.7C884.2,192,897,160,909,176C922.1,192,935,256,947,272C960,288,973,256,985,250.7C997.9,245,1011,267,1023,266.7C1035.8,267,1048,245,1061,208C1073.7,171,1086,117,1099,85.3C1111.6,53,1124,43,1137,48C1149.5,53,1162,75,1175,90.7C1187.4,107,1200,117,1213,122.7C1225.3,128,1238,128,1251,154.7C1263.2,181,1276,235,1288,218.7C1301.1,203,1314,117,1326,74.7C1338.9,32,1352,32,1364,48C1376.8,64,1389,96,1402,117.3C1414.7,139,1427,149,1434,154.7L1440,160L1440,0L1433.7,0C1427.4,0,1415,0,1402,0C1389.5,0,1377,0,1364,0C1351.6,0,1339,0,1326,0C1313.7,0,1301,0,1288,0C1275.8,0,1263,0,1251,0C1237.9,0,1225,0,1213,0C1200,0,1187,0,1175,0C1162.1,0,1149,0,1137,0C1124.2,0,1112,0,1099,0C1086.3,0,1074,0,1061,0C1048.4,0,1036,0,1023,0C1010.5,0,998,0,985,0C972.6,0,960,0,947,0C934.7,0,922,0,909,0C896.8,0,884,0,872,0C858.9,0,846,0,834,0C821.1,0,808,0,796,0C783.2,0,771,0,758,0C745.3,0,733,0,720,0C707.4,0,695,0,682,0C669.5,0,657,0,644,0C631.6,0,619,0,606,0C593.7,0,581,0,568,0C555.8,0,543,0,531,0C517.9,0,505,0,493,0C480,0,467,0,455,0C442.1,0,429,0,417,0C404.2,0,392,0,379,0C366.3,0,354,0,341,0C328.4,0,316,0,303,0C290.5,0,278,0,265,0C252.6,0,240,0,227,0C214.7,0,202,0,189,0C176.8,0,164,0,152,0C138.9,0,126,0,114,0C101.1,0,88,0,76,0C63.2,0,51,0,38,0C25.3,0,13,0,6,0L0,0Z"></path></svg>